<?xml version="1.0" encoding="utf-8"?>
<!-- Generator: Adobe Illustrator 16.0.0, SVG Export Plug-In . SVG Version: 6.00 Build 0)  -->
<!DOCTYPE svg PUBLIC "-//W3C//DTD SVG 1.1//EN" "http://www.w3.org/Graphics/SVG/1.1/DTD/svg11.dtd">
<svg version="1.1" id="Layer_1" xmlns="http://www.w3.org/2000/svg" xmlns:xlink="http://www.w3.org/1999/xlink" x="0px" y="0px"
	 width="50px" height="50px" viewBox="0 0 50 50" enable-background="new 0 0 50 50" xml:space="preserve">
<path fill="#5B4319" d="M36.324,17.881l2.113-2.408l-2.811-1.539l1.164-2.986l-3.168-0.485l0.072-3.204l-3.143,0.627l-1.027-3.034
	l-2.738,1.663l-2.004-2.5l-2.004,2.5l-2.738-1.663l-1.029,3.034l-3.141-0.627l0.071,3.204l-3.167,0.485l1.163,2.985l-2.81,1.54
	l2.114,2.408l-2.114,2.408l2.81,1.54l-1.163,2.985l3.167,0.485l-0.071,3.203l3.141-0.627l1.029,3.035l2.738-1.664l2.004,2.5
	l2.004-2.5l2.738,1.664l1.027-3.035l3.143,0.627l-0.072-3.203l3.168-0.485l-1.164-2.985l2.811-1.54L36.324,17.881z M24.783,28.617
	c-5.93,0-10.737-4.806-10.737-10.736S18.853,7.144,24.783,7.144c5.93,0,10.737,4.807,10.737,10.737S30.713,28.617,24.783,28.617z"/>
<circle fill="#F26A42" cx="24.783" cy="17.881" r="8.322"/>
<path fill="#5B4319" d="M24.783,37.924l7.99,7.99h0.332V29.55c-0.078,0-0.154,0.017-0.233,0.001l-1.528-0.305l-1.168,3.449
	l-3.113-1.891l-2.28,2.843l-2.279-2.843l-3.113,1.891l-1.17-3.449l-1.527,0.305c-0.08,0.016-0.155-0.001-0.233-0.001v16.364h0.332
	L24.783,37.924z"/>
</svg>
