<?xml version="1.0" encoding="utf-8"?>
<!-- Generator: Adobe Illustrator 16.0.0, SVG Export Plug-In . SVG Version: 6.00 Build 0)  -->
<!DOCTYPE svg PUBLIC "-//W3C//DTD SVG 1.1//EN" "http://www.w3.org/Graphics/SVG/1.1/DTD/svg11.dtd">
<svg version="1.1" id="Layer_1" xmlns="http://www.w3.org/2000/svg" xmlns:xlink="http://www.w3.org/1999/xlink" x="0px" y="0px"
	 width="50px" height="50px" viewBox="0 0 50 50" enable-background="new 0 0 50 50" xml:space="preserve">
<g>
	<path d="M31.269,17.206l-5.886,20.414c-0.326,1.167-0.488,1.933-0.488,2.297c0,0.21,0.086,0.406,0.258,0.588
		c0.172,0.182,0.354,0.273,0.546,0.273c0.325,0,0.651-0.145,0.976-0.432c0.861-0.707,1.896-1.99,3.101-3.847l0.977,0.574
		c-2.891,5.034-5.962,7.551-9.216,7.551c-1.244,0-2.235-0.349-2.972-1.048s-1.105-1.584-1.105-2.656
		c0-0.707,0.163-1.607,0.488-2.698l3.991-13.724c0.383-1.321,0.574-2.316,0.574-2.986c0-0.421-0.182-0.794-0.545-1.12
		c-0.364-0.325-0.861-0.488-1.493-0.488c-0.287,0-0.631,0.009-1.034,0.029l0.374-1.148l9.733-1.579H31.269z M29.488,3.999
		c1.188,0,2.188,0.412,3,1.234c0.814,0.823,1.221,1.818,1.221,2.986c0,1.168-0.412,2.163-1.234,2.986
		c-0.823,0.823-1.818,1.234-2.986,1.234c-1.148,0-2.135-0.412-2.957-1.234c-0.823-0.823-1.235-1.818-1.235-2.986
		c0-1.167,0.407-2.163,1.22-2.986C27.33,4.41,28.32,3.999,29.488,3.999z"/>
</g>
</svg>
